{
  "accessors": [
    {
      "bufferView": 2,
      "componentType": 5126,
      "count": 822,
      "max": [
        15895.6005859375,
        24330.900390625,
        2045.1300048828125
      ],
      "min": [
        3787.27001953125,
        17371.400390625,
        -4973.43994140625
      ],
      "type": "VEC3"
    },
    {
      "bufferView": 2,
      "byteOffset": 9864,
      "componentType": 5126,
      "count": 822,
      "max": [
        0.99945980310440063,
        0.99781674146652222,
        0.9931681752204895
      ],
      "min": [
        -0.99986666440963745,
        -0.99820548295974731,
        -0.99953693151473999
      ],
      "type": "VEC3"
    },
    {
      "bufferView": 3,
      "componentType": 5126,
      "count": 822,
      "max": [
        0.99339151382446289,
        0.95736598968505859,
        0.99983996152877808,
        -1
      ],
      "min": [
        -0.98902970552444458,
        -0.9985155463218689,
        -0.99952173233032227,
        -1
      ],
      "type": "VEC4"
    },
    {
      "bufferView": 1,
      "componentType": 5126,
      "count": 822,
      "max": [
        0.99248999357223511,
        1.8367700576782227
      ],
      "min": [
        0.1255899965763092,
        1.0087300539016724
      ],
      "type": "VEC2"
    },
    {
      "bufferView": 0,
      "componentType": 5125,
      "count": 4236,
      "max": [
        821
      ],
      "min": [
        0
      ],
      "type": "SCALAR"
    }
  ],
  "asset": {
    "extras": {
      "author": "mou0321 (https://sketchfab.com/mou0321)",
      "license": "CC-BY-4.0 (http://creativecommons.org/licenses/by/4.0/)",
      "source": "https://sketchfab.com/models/7a4f911932c84922948ce46238eb2a91",
      "title": "l_habd"
    },
    "generator": "Sketchfab-3.18.7",
    "version": "2.0"
  },
  "bufferViews": [
    {
      "buffer": 0,
      "byteLength": 16944,
      "byteOffset": 0,
      "name": "floatBufferViews",
      "target": 34963
    },
    {
      "buffer": 0,
      "byteLength": 6576,
      "byteOffset": 16944,
      "byteStride": 8,
      "name": "floatBufferViews",
      "target": 34962
    },
    {
      "buffer": 0,
      "byteLength": 19728,
      "byteOffset": 23520,
      "byteStride": 12,
      "name": "floatBufferViews",
      "target": 34962
    },
    {
      "buffer": 0,
      "byteLength": 13152,
      "byteOffset": 43248,
      "byteStride": 16,
      "name": "floatBufferViews",
      "target": 34962
    }
  ],
  "buffers": [
    {
      "byteLength": 56400,
      "uri": "scene.bin"
    }
  ],
  "images": [
    {
      "uri": "textures/Material_64.002_baseColor.png"
    }
  ],
  "materials": [
    {
      "doubleSided": true,
      "emissiveFactor": [
        0,
        0,
        0
      ],
      "name": "Material_64.002",
      "pbrMetallicRoughness": {
        "baseColorFactor": [
          1,
          1,
          1,
          1
        ],
        "baseColorTexture": {
          "index": 0,
          "texCoord": 0
        },
        "metallicFactor": 0,
        "roughnessFactor": 0.59999999999999998
      }
    }
  ],
  "meshes": [
    {
      "name": "node_id41_0",
      "primitives": [
        {
          "attributes": {
            "NORMAL": 1,
            "POSITION": 0,
            "TANGENT": 2,
            "TEXCOORD_0": 3
          },
          "indices": 4,
          "material": 0,
          "mode": 4
        }
      ]
    }
  ],
  "nodes": [
    {
      "children": [
        1
      ],
      "name": "RootNode (gltf orientation matrix)",
      "rotation": [
        -0.70710678118654746,
        -0,
        -0,
        0.70710678118654757
      ]
    },
    {
      "children": [
        2
      ],
      "name": "RootNode (model correction matrix)"
    },
    {
      "children": [
        3,
        5
      ],
      "name": "Root"
    },
    {
      "children": [
        4
      ],
      "matrix": [
        0.59120000000000006,
        -0.18880000000000002,
        0.78412000000000004,
        0,
        0.49711000000000005,
        0.85089000000000015,
        -0.16992000000000004,
        0,
        -0.63511000000000006,
        0.49025000000000002,
        0.5969000000000001,
        0,
        0.084600000000000022,
        0.46345000000000003,
        2.0521699999999998,
        1
      ],
      "name": "Point"
    },
    {
      "name": "Point"
    },
    {
      "children": [
        6
      ],
      "matrix": [
        2.0000000000000008e-05,
        -3.0000000000000011e-05,
        1.0000000000000004e-05,
        0,
        -1.0000000000000004e-05,
        1.0000000000000004e-05,
        4.0000000000000017e-05,
        0,
        -3.0000000000000011e-05,
        -3.0000000000000011e-05,
        -0,
        0,
        0.10000000000000001,
        -0.15711000000000003,
        0.5,
        1
      ],
      "name": "node_id41"
    },
    {
      "mesh": 0,
      "name": "node_id41_0"
    }
  ],
  "samplers": [
    {
      "magFilter": 9729,
      "minFilter": 9987,
      "wrapS": 10497,
      "wrapT": 10497
    }
  ],
  "scene": 0,
  "scenes": [
    {
      "name": "OSG_Scene",
      "nodes": [
        0
      ]
    }
  ],
  "textures": [
    {
      "sampler": 0,
      "source": 0
    }
  ]
}

