{
  "accessors": [
    {
      "bufferView": 2,
      "componentType": 5126,
      "count": 411,
      "max": [
        24.031509399414062,
        82.464286804199219,
        41.968978881835938
      ],
      "min": [
        -27.564680099487305,
        3.2350699901580811,
        -16.961269378662109
      ],
      "type": "VEC3"
    },
    {
      "bufferView": 2,
      "byteOffset": 4932,
      "componentType": 5126,
      "count": 411,
      "max": [
        0.99989515542984009,
        0.98922926187515259,
        0.99740999937057495
      ],
      "min": [
        -0.99809759855270386,
        -0.99628239870071411,
        -0.99907577037811279
      ],
      "type": "VEC3"
    },
    {
      "bufferView": 3,
      "componentType": 5126,
      "count": 411,
      "max": [
        0.99807125329971313,
        0.9996720552444458,
        0.95988219976425171,
        1
      ],
      "min": [
        -0.99734824895858765,
        -0.99954581260681152,
        -0.99870198965072632,
        -1
      ],
      "type": "VEC4"
    },
    {
      "bufferView": 0,
      "componentType": 5125,
      "count": 1644,
      "max": [
        410
      ],
      "min": [
        0
      ],
      "type": "SCALAR"
    },
    {
      "bufferView": 2,
      "byteOffset": 9864,
      "componentType": 5126,
      "count": 169,
      "max": [
        26.076730728149414,
        64.108070373535156,
        24.190389633178711
      ],
      "min": [
        -30.215740203857422,
        44.797031402587891,
        -13.135410308837891
      ],
      "type": "VEC3"
    },
    {
      "bufferView": 2,
      "byteOffset": 11892,
      "componentType": 5126,
      "count": 169,
      "max": [
        0.97454196214675903,
        0.99557852745056152,
        0.9833294153213501
      ],
      "min": [
        -0.99339848756790161,
        -0.99016869068145752,
        -0.99343818426132202
      ],
      "type": "VEC3"
    },
    {
      "bufferView": 3,
      "byteOffset": 6576,
      "componentType": 5126,
      "count": 169,
      "max": [
        0.9064180850982666,
        0.99609720706939697,
        0.9943854808807373,
        1
      ],
      "min": [
        -0.98839002847671509,
        -0.99698734283447266,
        -0.65101206302642822,
        -1
      ],
      "type": "VEC4"
    },
    {
      "bufferView": 0,
      "byteOffset": 6576,
      "componentType": 5125,
      "count": 954,
      "max": [
        168
      ],
      "min": [
        0
      ],
      "type": "SCALAR"
    },
    {
      "bufferView": 2,
      "byteOffset": 13920,
      "componentType": 5126,
      "count": 24,
      "max": [
        6.1547398567199707,
        87.249183654785156,
        -2.5517499446868896
      ],
      "min": [
        -8.8170404434204102,
        77.508636474609375,
        -13.315509796142578
      ],
      "type": "VEC3"
    },
    {
      "bufferView": 2,
      "byteOffset": 14208,
      "componentType": 5126,
      "count": 24,
      "max": [
        0.9481542706489563,
        0.73459941148757935,
        0.99999374151229858
      ],
      "min": [
        -0.93881434202194214,
        -0.0027200644835829735,
        -0.93652057647705078
      ],
      "type": "VEC3"
    },
    {
      "bufferView": 3,
      "byteOffset": 9280,
      "componentType": 5126,
      "count": 24,
      "max": [
        0.89460134506225586,
        0.9724157452583313,
        0.98343396186828613,
        1
      ],
      "min": [
        -0.90704160928726196,
        -0.99971908330917358,
        -0.66162008047103882,
        -1
      ],
      "type": "VEC4"
    },
    {
      "bufferView": 0,
      "byteOffset": 10392,
      "componentType": 5125,
      "count": 96,
      "max": [
        23
      ],
      "min": [
        0
      ],
      "type": "SCALAR"
    },
    {
      "bufferView": 2,
      "byteOffset": 14496,
      "componentType": 5126,
      "count": 157,
      "max": [
        9.3412504196166992,
        111.04226684570312,
        6.8236699104309082
      ],
      "min": [
        -12.223549842834473,
        82.896888732910156,
        -16.979579925537109
      ],
      "type": "VEC3"
    },
    {
      "bufferView": 2,
      "byteOffset": 16380,
      "componentType": 5126,
      "count": 157,
      "max": [
        0.99754267930984497,
        0.99742120504379272,
        0.99917834997177124
      ],
      "min": [
        -0.99814093112945557,
        -0.99485069513320923,
        -0.9990617036819458
      ],
      "type": "VEC3"
    },
    {
      "bufferView": 3,
      "byteOffset": 9664,
      "componentType": 5126,
      "count": 157,
      "max": [
        0.9792906641960144,
        0.99054723978042603,
        0.94325315952301025,
        1
      ],
      "min": [
        -0.99717473983764648,
        -0.97523683309555054,
        -0.97135233879089355,
        -1
      ],
      "type": "VEC4"
    },
    {
      "bufferView": 0,
      "byteOffset": 10776,
      "componentType": 5125,
      "count": 810,
      "max": [
        156
      ],
      "min": [
        0
      ],
      "type": "SCALAR"
    },
    {
      "bufferView": 2,
      "byteOffset": 18264,
      "componentType": 5126,
      "count": 84,
      "max": [
        10.309009552001953,
        113.03079986572266,
        8.262080192565918
      ],
      "min": [
        -13.287879943847656,
        87.944419860839844,
        -18.682109832763672
      ],
      "type": "VEC3"
    },
    {
      "bufferView": 2,
      "byteOffset": 19272,
      "componentType": 5126,
      "count": 84,
      "max": [
        0.99773186445236206,
        0.99211776256561279,
        0.97248750925064087
      ],
      "min": [
        -0.99366956949234009,
        -0.9748084545135498,
        -0.99443823099136353
      ],
      "type": "VEC3"
    },
    {
      "bufferView": 3,
      "byteOffset": 12176,
      "componentType": 5126,
      "count": 84,
      "max": [
        0.99392026662826538,
        0.71389150619506836,
        0.51769495010375977,
        1
      ],
      "min": [
        -0.9778563380241394,
        -0.61992669105529785,
        -0.99390107393264771,
        -1
      ],
      "type": "VEC4"
    },
    {
      "bufferView": 0,
      "byteOffset": 14016,
      "componentType": 5125,
      "count": 444,
      "max": [
        83
      ],
      "min": [
        0
      ],
      "type": "SCALAR"
    },
    {
      "bufferView": 2,
      "byteOffset": 20280,
      "componentType": 5126,
      "count": 822,
      "max": [
        15895.6005859375,
        24330.900390625,
        2045.1300048828125
      ],
      "min": [
        3787.27001953125,
        17371.400390625,
        -4973.43994140625
      ],
      "type": "VEC3"
    },
    {
      "bufferView": 2,
      "byteOffset": 30144,
      "componentType": 5126,
      "count": 822,
      "max": [
        0.99945980310440063,
        0.99781674146652222,
        0.9931681752204895
      ],
      "min": [
        -0.99986666440963745,
        -0.99820548295974731,
        -0.99953693151473999
      ],
      "type": "VEC3"
    },
    {
      "bufferView": 3,
      "byteOffset": 13520,
      "componentType": 5126,
      "count": 822,
      "max": [
        0.99339151382446289,
        0.95736598968505859,
        0.99983996152877808,
        -1
      ],
      "min": [
        -0.98902970552444458,
        -0.9985155463218689,
        -0.99952173233032227,
        -1
      ],
      "type": "VEC4"
    },
    {
      "bufferView": 1,
      "componentType": 5126,
      "count": 822,
      "max": [
        0.99248999357223511,
        1.8367700576782227
      ],
      "min": [
        0.1255899965763092,
        1.0087300539016724
      ],
      "type": "VEC2"
    },
    {
      "bufferView": 0,
      "byteOffset": 15792,
      "componentType": 5125,
      "count": 4236,
      "max": [
        821
      ],
      "min": [
        0
      ],
      "type": "SCALAR"
    },
    {
      "bufferView": 2,
      "byteOffset": 40008,
      "componentType": 5126,
      "count": 822,
      "max": [
        -3787.25,
        24330.900390625,
        2045.1300048828125
      ],
      "min": [
        -15895.5,
        17371.400390625,
        -4973.43994140625
      ],
      "type": "VEC3"
    },
    {
      "bufferView": 2,
      "byteOffset": 49872,
      "componentType": 5126,
      "count": 822,
      "max": [
        0.99945884943008423,
        0.99820715188980103,
        0.99953228235244751
      ],
      "min": [
        -0.99986881017684937,
        -0.99781757593154907,
        -0.9931681752204895
      ],
      "type": "VEC3"
    },
    {
      "bufferView": 3,
      "byteOffset": 26672,
      "componentType": 5126,
      "count": 822,
      "max": [
        0.98900926113128662,
        0.95737737417221069,
        0.99983996152877808,
        -1
      ],
      "min": [
        -0.99338704347610474,
        -0.99851536750793457,
        -0.99952185153961182,
        -1
      ],
      "type": "VEC4"
    },
    {
      "bufferView": 1,
      "byteOffset": 6576,
      "componentType": 5126,
      "count": 822,
      "max": [
        0.99248999357223511,
        1.8367700576782227
      ],
      "min": [
        0.1255899965763092,
        1.0087300539016724
      ],
      "type": "VEC2"
    },
    {
      "bufferView": 0,
      "byteOffset": 32736,
      "componentType": 5125,
      "count": 4236,
      "max": [
        821
      ],
      "min": [
        0
      ],
      "type": "SCALAR"
    }
  ],
  "asset": {
    "extras": {
      "author": "mou0321 (https://sketchfab.com/mou0321)",
      "license": "CC-BY-4.0 (http://creativecommons.org/licenses/by/4.0/)",
      "source": "https://sketchfab.com/models/a2ea66ebdc8f4eb984ae30338f6c26f0",
      "title": "hands"
    },
    "generator": "Sketchfab-3.17.1",
    "version": "2.0"
  },
  "bufferViews": [
    {
      "buffer": 0,
      "byteLength": 49680,
      "byteOffset": 0,
      "name": "floatBufferViews",
      "target": 34963
    },
    {
      "buffer": 0,
      "byteLength": 13152,
      "byteOffset": 49680,
      "byteStride": 8,
      "name": "floatBufferViews",
      "target": 34962
    },
    {
      "buffer": 0,
      "byteLength": 59736,
      "byteOffset": 62832,
      "byteStride": 12,
      "name": "floatBufferViews",
      "target": 34962
    },
    {
      "buffer": 0,
      "byteLength": 39824,
      "byteOffset": 122568,
      "byteStride": 16,
      "name": "floatBufferViews",
      "target": 34962
    }
  ],
  "buffers": [
    {
      "byteLength": 162392,
      "uri": "scene.bin"
    }
  ],
  "images": [
    {
      "uri": "textures/Material_64.002_baseColor.png"
    },
    {
      "uri": "textures/Material_64.002_metallicRoughness.png"
    }
  ],
  "materials": [
    {
      "doubleSided": true,
      "emissiveFactor": [
        0,
        0,
        0
      ],
      "name": "Material_64.002",
      "pbrMetallicRoughness": {
        "baseColorFactor": [
          1,
          1,
          1,
          1
        ],
        "baseColorTexture": {
          "index": 0,
          "texCoord": 0
        },
        "metallicFactor": 1,
        "metallicRoughnessTexture": {
          "index": 1,
          "texCoord": 0
        },
        "roughnessFactor": 0.59999999999999998
      }
    },
    {
      "doubleSided": true,
      "emissiveFactor": [
        0,
        0,
        0
      ],
      "name": "Material_67",
      "pbrMetallicRoughness": {
        "baseColorFactor": [
          1,
          1,
          1,
          1
        ],
        "metallicFactor": 0,
        "roughnessFactor": 0.59999999999999998
      }
    },
    {
      "doubleSided": true,
      "emissiveFactor": [
        0,
        0,
        0
      ],
      "name": "Material_66",
      "pbrMetallicRoughness": {
        "baseColorFactor": [
          1,
          1,
          1,
          1
        ],
        "metallicFactor": 0,
        "roughnessFactor": 0.59999999999999998
      }
    },
    {
      "doubleSided": true,
      "emissiveFactor": [
        0,
        0,
        0
      ],
      "name": "Material_65",
      "pbrMetallicRoughness": {
        "baseColorFactor": [
          1,
          1,
          1,
          1
        ],
        "metallicFactor": 0,
        "roughnessFactor": 0.59999999999999998
      }
    },
    {
      "doubleSided": true,
      "emissiveFactor": [
        0,
        0,
        0
      ],
      "name": "Material_64",
      "pbrMetallicRoughness": {
        "baseColorFactor": [
          1,
          1,
          1,
          1
        ],
        "metallicFactor": 0,
        "roughnessFactor": 0.59999999999999998
      }
    },
    {
      "doubleSided": true,
      "emissiveFactor": [
        0,
        0,
        0
      ],
      "name": "Material_63",
      "pbrMetallicRoughness": {
        "baseColorFactor": [
          1,
          1,
          1,
          1
        ],
        "metallicFactor": 0,
        "roughnessFactor": 0.59999999999999998
      }
    }
  ],
  "meshes": [
    {
      "name": "node_id44_0",
      "primitives": [
        {
          "attributes": {
            "NORMAL": 1,
            "POSITION": 0,
            "TANGENT": 2
          },
          "indices": 3,
          "material": 1,
          "mode": 4
        }
      ]
    },
    {
      "name": "node_id42_0",
      "primitives": [
        {
          "attributes": {
            "NORMAL": 5,
            "POSITION": 4,
            "TANGENT": 6
          },
          "indices": 7,
          "material": 2,
          "mode": 4
        }
      ]
    },
    {
      "name": "node_id40_0",
      "primitives": [
        {
          "attributes": {
            "NORMAL": 9,
            "POSITION": 8,
            "TANGENT": 10
          },
          "indices": 11,
          "material": 3,
          "mode": 4
        }
      ]
    },
    {
      "name": "node_id38_0",
      "primitives": [
        {
          "attributes": {
            "NORMAL": 13,
            "POSITION": 12,
            "TANGENT": 14
          },
          "indices": 15,
          "material": 4,
          "mode": 4
        }
      ]
    },
    {
      "name": "node_id36_0",
      "primitives": [
        {
          "attributes": {
            "NORMAL": 17,
            "POSITION": 16,
            "TANGENT": 18
          },
          "indices": 19,
          "material": 5,
          "mode": 4
        }
      ]
    },
    {
      "name": "node_id41_0",
      "primitives": [
        {
          "attributes": {
            "NORMAL": 21,
            "POSITION": 20,
            "TANGENT": 22,
            "TEXCOORD_0": 23
          },
          "indices": 24,
          "material": 0,
          "mode": 4
        }
      ]
    },
    {
      "name": "node_id41.001_0",
      "primitives": [
        {
          "attributes": {
            "NORMAL": 26,
            "POSITION": 25,
            "TANGENT": 27,
            "TEXCOORD_0": 28
          },
          "indices": 29,
          "material": 0,
          "mode": 4
        }
      ]
    }
  ],
  "nodes": [
    {
      "children": [
        1
      ],
      "name": "RootNode (gltf orientation matrix)",
      "rotation": [
        -0.70710678118654746,
        -0,
        -0,
        0.70710678118654757
      ]
    },
    {
      "children": [
        2
      ],
      "name": "RootNode (model correction matrix)"
    },
    {
      "children": [
        3,
        15,
        17,
        19
      ],
      "name": "Root"
    },
    {
      "children": [
        4
      ],
      "matrix": [
        0.010000000000000002,
        0,
        0,
        0,
        0,
        -0,
        0.010000000000000002,
        0,
        0,
        -0.010000000000000002,
        -0,
        0,
        0,
        0,
        0,
        1
      ],
      "name": "root"
    },
    {
      "children": [
        5,
        7,
        9,
        11,
        13
      ],
      "matrix": [
        0,
        0,
        -0.0010000000000000002,
        0,
        0,
        0.0010000000000000002,
        0,
        0,
        0.0010000000000000002,
        -0,
        0,
        0,
        -0.31118000000000007,
        0.016340000000000004,
        0.25600000000000001,
        1
      ],
      "name": "node_id46"
    },
    {
      "children": [
        6
      ],
      "matrix": [
        4.6632099999999994,
        -0,
        -0,
        0,
        0,
        4.6632099999999994,
        -0,
        0,
        -0,
        0,
        4.6632099999999994,
        0,
        9.6505200000000002,
        -271.08578,
        201.70424,
        1
      ],
      "name": "node_id44"
    },
    {
      "mesh": 0,
      "name": "node_id44_0"
    },
    {
      "children": [
        8
      ],
      "matrix": [
        4.6632099999999994,
        -0,
        -0,
        0,
        0,
        4.6632099999999994,
        -0,
        0,
        -0,
        0,
        4.6632099999999994,
        0,
        9.6505200000000002,
        -271.08578,
        201.70424,
        1
      ],
      "name": "node_id42"
    },
    {
      "mesh": 1,
      "name": "node_id42_0"
    },
    {
      "children": [
        10
      ],
      "matrix": [
        4.6632099999999994,
        -0,
        -0,
        0,
        0,
        4.6632099999999994,
        -0,
        0,
        -0,
        0,
        4.6632099999999994,
        0,
        9.6505200000000002,
        -271.08578,
        201.70424,
        1
      ],
      "name": "node_id40"
    },
    {
      "mesh": 2,
      "name": "node_id40_0"
    },
    {
      "children": [
        12
      ],
      "matrix": [
        4.6632099999999994,
        -0,
        -0,
        0,
        0,
        4.6632099999999994,
        -0,
        0,
        -0,
        0,
        4.6632099999999994,
        0,
        9.6505200000000002,
        -271.08578,
        201.70424,
        1
      ],
      "name": "node_id38"
    },
    {
      "mesh": 3,
      "name": "node_id38_0"
    },
    {
      "children": [
        14
      ],
      "matrix": [
        4.6632099999999994,
        -0,
        -0,
        0,
        0,
        4.6632099999999994,
        -0,
        0,
        -0,
        0,
        4.6632099999999994,
        0,
        9.6505200000000002,
        -271.08578,
        201.70424,
        1
      ],
      "name": "node_id36"
    },
    {
      "mesh": 4,
      "name": "node_id36_0"
    },
    {
      "children": [
        16
      ],
      "matrix": [
        0.59120000000000006,
        -0.18880000000000002,
        0.78412000000000004,
        0,
        0.49711000000000005,
        0.85089000000000015,
        -0.16992000000000004,
        0,
        -0.63511000000000006,
        0.49025000000000002,
        0.5969000000000001,
        0,
        0.084600000000000022,
        0.46345000000000003,
        2.0521699999999998,
        1
      ],
      "name": "Point"
    },
    {
      "name": "Point"
    },
    {
      "children": [
        18
      ],
      "matrix": [
        2.0000000000000008e-05,
        -3.0000000000000011e-05,
        1.0000000000000004e-05,
        0,
        -1.0000000000000004e-05,
        1.0000000000000004e-05,
        4.0000000000000017e-05,
        0,
        -3.0000000000000011e-05,
        -3.0000000000000011e-05,
        -0,
        0,
        0.10000000000000001,
        -0.15711000000000003,
        0.5,
        1
      ],
      "name": "node_id41"
    },
    {
      "mesh": 5,
      "name": "node_id41_0"
    },
    {
      "children": [
        20
      ],
      "matrix": [
        0.010000000000000002,
        0,
        0,
        0,
        0,
        -0,
        0.010000000000000002,
        0,
        0,
        -0.010000000000000002,
        -0,
        0,
        0,
        0,
        0,
        1
      ],
      "name": "root.002"
    },
    {
      "children": [
        21
      ],
      "matrix": [
        0.0026400000000000009,
        -0.0011500000000000004,
        -0.0026100000000000008,
        0,
        0.0011700000000000002,
        0.0036800000000000014,
        -0.00044000000000000012,
        0,
        0.0026000000000000007,
        -0.0004900000000000002,
        0.002850000000000001,
        0,
        -23.1281,
        50,
        12.066700000000001,
        1
      ],
      "name": "node_id41.001"
    },
    {
      "mesh": 6,
      "name": "node_id41.001_0"
    }
  ],
  "samplers": [
    {
      "magFilter": 9729,
      "minFilter": 9987,
      "wrapS": 10497,
      "wrapT": 10497
    }
  ],
  "scene": 0,
  "scenes": [
    {
      "name": "OSG_Scene",
      "nodes": [
        0
      ]
    }
  ],
  "textures": [
    {
      "sampler": 0,
      "source": 0
    },
    {
      "sampler": 0,
      "source": 1
    }
  ]
}

