{
  "accessors": [
    {
      "bufferView": 1,
      "componentType": 5126,
      "count": 4447,
      "max": [
        13.328729629516602,
        31.563629150390625,
        2.1640899181365967
      ],
      "min": [
        -13.330860137939453,
        -0.0049299998208880424,
        -4.4226498603820801
      ],
      "type": "VEC3"
    },
    {
      "bufferView": 1,
      "byteOffset": 53364,
      "componentType": 5126,
      "count": 4447,
      "max": [
        0.99993300437927246,
        0.99992918968200684,
        0.9999663233757019
      ],
      "min": [
        -0.99993300437927246,
        -1,
        -0.99990183115005493
      ],
      "type": "VEC3"
    },
    {
      "bufferView": 2,
      "componentType": 5126,
      "count": 4447,
      "max": [
        1,
        0.99862784147262573,
        1,
        1
      ],
      "min": [
        -1,
        -0.99982047080993652,
        -1,
        -1
      ],
      "type": "VEC4"
    },
    {
      "bufferView": 0,
      "componentType": 5125,
      "count": 17880,
      "max": [
        4446
      ],
      "min": [
        0
      ],
      "type": "SCALAR"
    }
  ],
  "asset": {
    "generator": "Sketchfab (OSG glTF plugin)",
    "version": "2.0"
  },
  "bufferViews": [
    {
      "buffer": 0,
      "byteLength": 71520,
      "byteOffset": 0,
      "name": "floatBufferViews",
      "target": 34963
    },
    {
      "buffer": 0,
      "byteLength": 106728,
      "byteOffset": 71520,
      "byteStride": 12,
      "name": "floatBufferViews",
      "target": 34962
    },
    {
      "buffer": 0,
      "byteLength": 71152,
      "byteOffset": 178248,
      "byteStride": 16,
      "name": "floatBufferViews",
      "target": 34962
    }
  ],
  "buffers": [
    {
      "byteLength": 249400,
      "uri": "scene.bin"
    }
  ],
  "materials": [
    {
      "doubleSided": true,
      "emissiveFactor": [
        0,
        0,
        0
      ],
      "name": "lambert2",
      "pbrMetallicRoughness": {
        "baseColorFactor": [
          1,
          1,
          1,
          1
        ],
        "metallicFactor": 0,
        "roughnessFactor": 0.59999999999999998
      }
    }
  ],
  "meshes": [
    {
      "name": "Body_0",
      "primitives": [
        {
          "attributes": {
            "NORMAL": 1,
            "POSITION": 0,
            "TANGENT": 2
          },
          "indices": 3,
          "material": 0,
          "mode": 4
        }
      ]
    }
  ],
  "nodes": [
    {
      "children": [
        1
      ],
      "name": "RootNode (gltf orientation matrix)",
      "rotation": [
        -0.70710678118654746,
        -0,
        -0,
        0.70710678118654757
      ]
    },
    {
      "children": [
        2
      ],
      "name": "RootNode (model correction matrix)"
    },
    {
      "children": [
        3
      ],
      "name": "Root"
    },
    {
      "children": [
        4
      ],
      "matrix": [
        0.22526000000000004,
        0,
        0,
        0,
        0,
        -0,
        0.22526000000000004,
        0,
        0,
        -0.22526000000000004,
        -0,
        0,
        0,
        0,
        0,
        1
      ],
      "name": "Patrick"
    },
    {
      "children": [
        5
      ],
      "name": "Body"
    },
    {
      "children": [
        6
      ],
      "name": "Geode"
    },
    {
      "mesh": 0,
      "name": "Body_0"
    }
  ],
  "scene": 0,
  "scenes": [
    {
      "name": "OSG_Scene",
      "nodes": [
        0
      ]
    }
  ]
}

