{
  "accessors": [
    {
      "bufferView": 2,
      "componentType": 5126,
      "count": 5149,
      "max": [
        200,
        200,
        200
      ],
      "min": [
        -200,
        -200,
        -200
      ],
      "type": "VEC3"
    },
    {
      "bufferView": 2,
      "byteOffset": 61788,
      "componentType": 5126,
      "count": 5149,
      "max": [
        1,
        1,
        1
      ],
      "min": [
        -1,
        -1,
        -1
      ],
      "type": "VEC3"
    },
    {
      "bufferView": 3,
      "componentType": 5126,
      "count": 5149,
      "max": [
        1,
        0.015686973929405212,
        1,
        1
      ],
      "min": [
        -1,
        -0.01568605937063694,
        -1,
        1
      ],
      "type": "VEC4"
    },
    {
      "bufferView": 1,
      "componentType": 5126,
      "count": 5149,
      "max": [
        1,
        1
      ],
      "min": [
        0,
        0
      ],
      "type": "VEC2"
    },
    {
      "bufferView": 0,
      "componentType": 5125,
      "count": 29400,
      "max": [
        5148
      ],
      "min": [
        0
      ],
      "type": "SCALAR"
    }
  ],
  "asset": {
    "extras": {
      "author": "mou0321 (https://sketchfab.com/mou0321)",
      "license": "CC-BY-4.0 (http://creativecommons.org/licenses/by/4.0/)",
      "source": "https://sketchfab.com/models/864eef97a7b542ad8ae13eec28870a64",
      "title": "planet"
    },
    "generator": "Sketchfab-3.18.7",
    "version": "2.0"
  },
  "bufferViews": [
    {
      "buffer": 0,
      "byteLength": 117600,
      "byteOffset": 0,
      "name": "floatBufferViews",
      "target": 34963
    },
    {
      "buffer": 0,
      "byteLength": 41192,
      "byteOffset": 117600,
      "byteStride": 8,
      "name": "floatBufferViews",
      "target": 34962
    },
    {
      "buffer": 0,
      "byteLength": 123576,
      "byteOffset": 158792,
      "byteStride": 12,
      "name": "floatBufferViews",
      "target": 34962
    },
    {
      "buffer": 0,
      "byteLength": 82384,
      "byteOffset": 282368,
      "byteStride": 16,
      "name": "floatBufferViews",
      "target": 34962
    }
  ],
  "buffers": [
    {
      "byteLength": 364752,
      "uri": "scene.bin"
    }
  ],
  "images": [
    {
      "uri": "textures/Moon_baseColor.jpg"
    }
  ],
  "materials": [
    {
      "doubleSided": true,
      "emissiveFactor": [
        0,
        0,
        0
      ],
      "name": "Moon",
      "pbrMetallicRoughness": {
        "baseColorFactor": [
          1,
          1,
          1,
          1
        ],
        "baseColorTexture": {
          "index": 0,
          "texCoord": 0
        },
        "metallicFactor": 0,
        "roughnessFactor": 0.59999999999999998
      }
    }
  ],
  "meshes": [
    {
      "name": "Moon_0",
      "primitives": [
        {
          "attributes": {
            "NORMAL": 1,
            "POSITION": 0,
            "TANGENT": 2,
            "TEXCOORD_0": 3
          },
          "indices": 4,
          "material": 0,
          "mode": 4
        }
      ]
    }
  ],
  "nodes": [
    {
      "children": [
        1
      ],
      "name": "RootNode (gltf orientation matrix)",
      "rotation": [
        -0.70710678118654746,
        -0,
        -0,
        0.70710678118654757
      ]
    },
    {
      "children": [
        2
      ],
      "name": "RootNode (model correction matrix)"
    },
    {
      "children": [
        3,
        5,
        7
      ],
      "name": "Root"
    },
    {
      "children": [
        4
      ],
      "matrix": [
        0.59120000000000006,
        -0.18880000000000002,
        0.78412000000000004,
        0,
        0.49711000000000005,
        0.85089000000000015,
        -0.16992000000000004,
        0,
        -0.63511000000000006,
        0.49025000000000002,
        0.5969000000000001,
        0,
        -4.6799499999999998,
        1.6037599999999999,
        5.1287299999999991,
        1
      ],
      "name": "Point"
    },
    {
      "name": "Point"
    },
    {
      "children": [
        6
      ],
      "matrix": [
        0.010000000000000002,
        0,
        0,
        0,
        0,
        -0,
        0.010000000000000002,
        0,
        0,
        -0.010000000000000002,
        -0,
        0,
        5.3765400000000003,
        -11.4763,
        2.03749,
        1
      ],
      "name": "Sun_light"
    },
    {
      "name": "Sun_light"
    },
    {
      "children": [
        8
      ],
      "matrix": [
        0.010000000000000002,
        0,
        0,
        0,
        0,
        -0,
        0.010000000000000002,
        0,
        0,
        -0.010000000000000002,
        -0,
        0,
        0.24218000000000001,
        0.06199000000000001,
        2.29623,
        1
      ],
      "name": "Moon"
    },
    {
      "mesh": 0,
      "name": "Moon_0"
    }
  ],
  "samplers": [
    {
      "magFilter": 9729,
      "minFilter": 9987,
      "wrapS": 10497,
      "wrapT": 10497
    }
  ],
  "scene": 0,
  "scenes": [
    {
      "name": "OSG_Scene",
      "nodes": [
        0
      ]
    }
  ],
  "textures": [
    {
      "sampler": 0,
      "source": 0
    }
  ]
}

